<mxfile host="app.diagrams.net" agent="Mozilla/5.0 (X11; Linux x86_64; rv:132.0) Gecko/20100101 Firefox/132.0" version="24.8.6">
  <diagram name="Page-1" id="_k5ArbzlJ-PiE-V6iwf7">
    <mxGraphModel dx="632" dy="1427" grid="1" gridSize="10" guides="1" tooltips="1" connect="1" arrows="1" fold="1" page="1" pageScale="1" pageWidth="850" pageHeight="1100" math="0" shadow="0">
      <root>
        <mxCell id="0" />
        <mxCell id="1" parent="0" />
        <mxCell id="TdfvYruZWpuvt_22ktZn-1" value="" style="childLayout=tableLayout;recursiveResize=0;shadow=0;fillColor=none;" parent="1" vertex="1">
          <mxGeometry x="240" y="300" width="540" height="40" as="geometry" />
        </mxCell>
        <mxCell id="TdfvYruZWpuvt_22ktZn-2" value="" style="shape=tableRow;horizontal=0;startSize=0;swimlaneHead=0;swimlaneBody=0;top=0;left=0;bottom=0;right=0;dropTarget=0;collapsible=0;recursiveResize=0;expand=0;fontStyle=0;fillColor=none;strokeColor=inherit;" parent="TdfvYruZWpuvt_22ktZn-1" vertex="1">
          <mxGeometry width="540" height="40" as="geometry" />
        </mxCell>
        <mxCell id="TdfvYruZWpuvt_22ktZn-3" value="&lt;u&gt;Emp_ID&lt;/u&gt;" style="connectable=1;recursiveResize=0;strokeColor=inherit;fillColor=none;align=center;whiteSpace=wrap;html=1;" parent="TdfvYruZWpuvt_22ktZn-2" vertex="1">
          <mxGeometry width="60" height="40" as="geometry">
            <mxRectangle width="60" height="40" as="alternateBounds" />
          </mxGeometry>
        </mxCell>
        <mxCell id="TdfvYruZWpuvt_22ktZn-5" value="Fname" style="connectable=1;recursiveResize=0;strokeColor=inherit;fillColor=none;align=center;whiteSpace=wrap;html=1;" parent="TdfvYruZWpuvt_22ktZn-2" vertex="1">
          <mxGeometry x="60" width="60" height="40" as="geometry">
            <mxRectangle width="60" height="40" as="alternateBounds" />
          </mxGeometry>
        </mxCell>
        <mxCell id="TdfvYruZWpuvt_22ktZn-34" value="Mname" style="connectable=1;recursiveResize=0;strokeColor=inherit;fillColor=none;align=center;whiteSpace=wrap;html=1;" parent="TdfvYruZWpuvt_22ktZn-2" vertex="1">
          <mxGeometry x="120" width="60" height="40" as="geometry">
            <mxRectangle width="60" height="40" as="alternateBounds" />
          </mxGeometry>
        </mxCell>
        <mxCell id="TdfvYruZWpuvt_22ktZn-35" value="Lname" style="connectable=1;recursiveResize=0;strokeColor=inherit;fillColor=none;align=center;whiteSpace=wrap;html=1;" parent="TdfvYruZWpuvt_22ktZn-2" vertex="1">
          <mxGeometry x="180" width="60" height="40" as="geometry">
            <mxRectangle width="60" height="40" as="alternateBounds" />
          </mxGeometry>
        </mxCell>
        <mxCell id="TdfvYruZWpuvt_22ktZn-36" value="Jobtype" style="connectable=1;recursiveResize=0;strokeColor=inherit;fillColor=none;align=center;whiteSpace=wrap;html=1;" parent="TdfvYruZWpuvt_22ktZn-2" vertex="1">
          <mxGeometry x="240" width="60" height="40" as="geometry">
            <mxRectangle width="60" height="40" as="alternateBounds" />
          </mxGeometry>
        </mxCell>
        <mxCell id="TdfvYruZWpuvt_22ktZn-37" value="Salary" style="connectable=1;recursiveResize=0;strokeColor=inherit;fillColor=none;align=center;whiteSpace=wrap;html=1;" parent="TdfvYruZWpuvt_22ktZn-2" vertex="1">
          <mxGeometry x="300" width="60" height="40" as="geometry">
            <mxRectangle width="60" height="40" as="alternateBounds" />
          </mxGeometry>
        </mxCell>
        <mxCell id="TdfvYruZWpuvt_22ktZn-38" value="Bdate" style="connectable=1;recursiveResize=0;strokeColor=inherit;fillColor=none;align=center;whiteSpace=wrap;html=1;" parent="TdfvYruZWpuvt_22ktZn-2" vertex="1">
          <mxGeometry x="360" width="60" height="40" as="geometry">
            <mxRectangle width="60" height="40" as="alternateBounds" />
          </mxGeometry>
        </mxCell>
        <mxCell id="TdfvYruZWpuvt_22ktZn-40" value="&lt;font style=&quot;font-size: 11px;&quot;&gt;Works_For&lt;/font&gt;" style="connectable=1;recursiveResize=0;strokeColor=inherit;fillColor=none;align=center;whiteSpace=wrap;html=1;" parent="TdfvYruZWpuvt_22ktZn-2" vertex="1">
          <mxGeometry x="420" width="60" height="40" as="geometry">
            <mxRectangle width="60" height="40" as="alternateBounds" />
          </mxGeometry>
        </mxCell>
        <mxCell id="TdfvYruZWpuvt_22ktZn-41" value="&lt;font style=&quot;font-size: 11px;&quot;&gt;ManagerID&lt;/font&gt;" style="connectable=1;recursiveResize=0;strokeColor=inherit;fillColor=none;align=center;whiteSpace=wrap;html=1;part=0;" parent="TdfvYruZWpuvt_22ktZn-2" vertex="1">
          <mxGeometry x="480" width="60" height="40" as="geometry">
            <mxRectangle width="60" height="40" as="alternateBounds" />
          </mxGeometry>
        </mxCell>
        <mxCell id="TdfvYruZWpuvt_22ktZn-76" style="edgeStyle=orthogonalEdgeStyle;rounded=0;orthogonalLoop=1;jettySize=auto;html=1;exitX=0.5;exitY=1;exitDx=0;exitDy=0;entryX=0.75;entryY=1;entryDx=0;entryDy=0;" parent="TdfvYruZWpuvt_22ktZn-2" source="TdfvYruZWpuvt_22ktZn-41" target="TdfvYruZWpuvt_22ktZn-3" edge="1">
          <mxGeometry relative="1" as="geometry">
            <mxPoint x="580" y="10" as="sourcePoint" />
            <mxPoint x="40" y="-70" as="targetPoint" />
          </mxGeometry>
        </mxCell>
        <mxCell id="TdfvYruZWpuvt_22ktZn-60" value="" style="childLayout=tableLayout;recursiveResize=0;shadow=0;fillColor=none;" parent="1" vertex="1">
          <mxGeometry x="240" y="160" width="120" height="40" as="geometry" />
        </mxCell>
        <mxCell id="TdfvYruZWpuvt_22ktZn-61" value="" style="shape=tableRow;horizontal=0;startSize=0;swimlaneHead=0;swimlaneBody=0;top=0;left=0;bottom=0;right=0;dropTarget=0;collapsible=0;recursiveResize=0;expand=0;fontStyle=0;fillColor=none;strokeColor=inherit;" parent="TdfvYruZWpuvt_22ktZn-60" vertex="1">
          <mxGeometry width="120" height="40" as="geometry" />
        </mxCell>
        <mxCell id="TdfvYruZWpuvt_22ktZn-62" value="&lt;u&gt;&lt;font style=&quot;font-size: 10px;&quot;&gt;Airline_name&lt;/font&gt;&lt;/u&gt;" style="connectable=1;recursiveResize=0;strokeColor=inherit;fillColor=none;align=center;whiteSpace=wrap;html=1;" parent="TdfvYruZWpuvt_22ktZn-61" vertex="1">
          <mxGeometry width="60" height="40" as="geometry">
            <mxRectangle width="60" height="40" as="alternateBounds" />
          </mxGeometry>
        </mxCell>
        <mxCell id="TdfvYruZWpuvt_22ktZn-63" value="&lt;u&gt;Airline_ID&lt;/u&gt;" style="connectable=1;recursiveResize=0;strokeColor=inherit;fillColor=none;align=center;whiteSpace=wrap;html=1;" parent="TdfvYruZWpuvt_22ktZn-61" vertex="1">
          <mxGeometry x="60" width="60" height="40" as="geometry">
            <mxRectangle width="60" height="40" as="alternateBounds" />
          </mxGeometry>
        </mxCell>
        <mxCell id="TdfvYruZWpuvt_22ktZn-65" value="" style="childLayout=tableLayout;recursiveResize=0;shadow=0;fillColor=none;" parent="1" vertex="1">
          <mxGeometry x="240" y="436" width="240" height="40" as="geometry" />
        </mxCell>
        <mxCell id="TdfvYruZWpuvt_22ktZn-66" value="" style="shape=tableRow;horizontal=0;startSize=0;swimlaneHead=0;swimlaneBody=0;top=0;left=0;bottom=0;right=0;dropTarget=0;collapsible=0;recursiveResize=0;expand=0;fontStyle=0;fillColor=none;strokeColor=inherit;" parent="TdfvYruZWpuvt_22ktZn-65" vertex="1">
          <mxGeometry width="240" height="40" as="geometry" />
        </mxCell>
        <mxCell id="TdfvYruZWpuvt_22ktZn-67" value="AirplaneID" style="connectable=1;recursiveResize=0;strokeColor=inherit;fillColor=none;align=center;whiteSpace=wrap;html=1;" parent="TdfvYruZWpuvt_22ktZn-66" vertex="1">
          <mxGeometry width="60" height="40" as="geometry">
            <mxRectangle width="60" height="40" as="alternateBounds" />
          </mxGeometry>
        </mxCell>
        <mxCell id="TdfvYruZWpuvt_22ktZn-68" value="Model" style="connectable=1;recursiveResize=0;strokeColor=inherit;fillColor=none;align=center;whiteSpace=wrap;html=1;" parent="TdfvYruZWpuvt_22ktZn-66" vertex="1">
          <mxGeometry x="60" width="60" height="40" as="geometry">
            <mxRectangle width="60" height="40" as="alternateBounds" />
          </mxGeometry>
        </mxCell>
        <mxCell id="TdfvYruZWpuvt_22ktZn-69" value="&lt;font style=&quot;font-size: 10px;&quot;&gt;Flying_Hours&lt;/font&gt;" style="connectable=1;recursiveResize=0;strokeColor=inherit;fillColor=none;align=center;whiteSpace=wrap;html=1;" parent="TdfvYruZWpuvt_22ktZn-66" vertex="1">
          <mxGeometry x="120" width="60" height="40" as="geometry">
            <mxRectangle width="60" height="40" as="alternateBounds" />
          </mxGeometry>
        </mxCell>
        <mxCell id="TdfvYruZWpuvt_22ktZn-70" value="Seating&lt;br&gt;Capacity" style="connectable=1;recursiveResize=0;strokeColor=inherit;fillColor=none;align=center;whiteSpace=wrap;html=1;" parent="TdfvYruZWpuvt_22ktZn-66" vertex="1">
          <mxGeometry x="180" width="60" height="40" as="geometry">
            <mxRectangle width="60" height="40" as="alternateBounds" />
          </mxGeometry>
        </mxCell>
        <mxCell id="TdfvYruZWpuvt_22ktZn-75" style="edgeStyle=orthogonalEdgeStyle;rounded=0;orthogonalLoop=1;jettySize=auto;html=1;exitX=0.5;exitY=0;exitDx=0;exitDy=0;entryX=1;entryY=0.5;entryDx=0;entryDy=0;" parent="1" source="TdfvYruZWpuvt_22ktZn-40" target="TdfvYruZWpuvt_22ktZn-63" edge="1">
          <mxGeometry relative="1" as="geometry" />
        </mxCell>
        <mxCell id="TdfvYruZWpuvt_22ktZn-91" value="" style="childLayout=tableLayout;recursiveResize=0;shadow=0;fillColor=none;" parent="1" vertex="1">
          <mxGeometry x="240" y="510" width="480" height="40" as="geometry" />
        </mxCell>
        <mxCell id="TdfvYruZWpuvt_22ktZn-92" value="" style="shape=tableRow;horizontal=0;startSize=0;swimlaneHead=0;swimlaneBody=0;top=0;left=0;bottom=0;right=0;dropTarget=0;collapsible=0;recursiveResize=0;expand=0;fontStyle=0;fillColor=none;strokeColor=inherit;" parent="TdfvYruZWpuvt_22ktZn-91" vertex="1">
          <mxGeometry width="480" height="40" as="geometry" />
        </mxCell>
        <mxCell id="TdfvYruZWpuvt_22ktZn-93" value="AirplaneID" style="connectable=1;recursiveResize=0;strokeColor=inherit;fillColor=none;align=center;whiteSpace=wrap;html=1;" parent="TdfvYruZWpuvt_22ktZn-92" vertex="1">
          <mxGeometry width="60" height="40" as="geometry">
            <mxRectangle width="60" height="40" as="alternateBounds" />
          </mxGeometry>
        </mxCell>
        <mxCell id="TdfvYruZWpuvt_22ktZn-94" value="Airline_ID" style="connectable=1;recursiveResize=0;strokeColor=inherit;fillColor=none;align=center;whiteSpace=wrap;html=1;" parent="TdfvYruZWpuvt_22ktZn-92" vertex="1">
          <mxGeometry x="60" width="60" height="40" as="geometry">
            <mxRectangle width="60" height="40" as="alternateBounds" />
          </mxGeometry>
        </mxCell>
        <mxCell id="TdfvYruZWpuvt_22ktZn-95" value="Source" style="connectable=1;recursiveResize=0;strokeColor=inherit;fillColor=none;align=center;whiteSpace=wrap;html=1;" parent="TdfvYruZWpuvt_22ktZn-92" vertex="1">
          <mxGeometry x="120" width="60" height="40" as="geometry">
            <mxRectangle width="60" height="40" as="alternateBounds" />
          </mxGeometry>
        </mxCell>
        <mxCell id="TdfvYruZWpuvt_22ktZn-96" value="Destination" style="connectable=1;recursiveResize=0;strokeColor=inherit;fillColor=none;align=center;whiteSpace=wrap;html=1;" parent="TdfvYruZWpuvt_22ktZn-92" vertex="1">
          <mxGeometry x="180" width="60" height="40" as="geometry">
            <mxRectangle width="60" height="40" as="alternateBounds" />
          </mxGeometry>
        </mxCell>
        <mxCell id="TdfvYruZWpuvt_22ktZn-97" value="&lt;u&gt;&lt;font style=&quot;font-size: 11px;&quot;&gt;Flight_Code&lt;/font&gt;&lt;/u&gt;" style="connectable=1;recursiveResize=0;strokeColor=inherit;fillColor=none;align=center;whiteSpace=wrap;html=1;" parent="TdfvYruZWpuvt_22ktZn-92" vertex="1">
          <mxGeometry x="240" width="60" height="40" as="geometry">
            <mxRectangle width="60" height="40" as="alternateBounds" />
          </mxGeometry>
        </mxCell>
        <mxCell id="TdfvYruZWpuvt_22ktZn-98" value="Pilot" style="connectable=1;recursiveResize=0;strokeColor=inherit;fillColor=none;align=center;whiteSpace=wrap;html=1;" parent="TdfvYruZWpuvt_22ktZn-92" vertex="1">
          <mxGeometry x="300" width="60" height="40" as="geometry">
            <mxRectangle width="60" height="40" as="alternateBounds" />
          </mxGeometry>
        </mxCell>
        <mxCell id="TdfvYruZWpuvt_22ktZn-99" value="Arrival" style="connectable=1;recursiveResize=0;strokeColor=inherit;fillColor=none;align=center;whiteSpace=wrap;html=1;" parent="TdfvYruZWpuvt_22ktZn-92" vertex="1">
          <mxGeometry x="360" width="60" height="40" as="geometry">
            <mxRectangle width="60" height="40" as="alternateBounds" />
          </mxGeometry>
        </mxCell>
        <mxCell id="TdfvYruZWpuvt_22ktZn-100" value="Deparure" style="connectable=1;recursiveResize=0;strokeColor=inherit;fillColor=none;align=center;whiteSpace=wrap;html=1;" parent="TdfvYruZWpuvt_22ktZn-92" vertex="1">
          <mxGeometry x="420" width="60" height="40" as="geometry">
            <mxRectangle width="60" height="40" as="alternateBounds" />
          </mxGeometry>
        </mxCell>
        <mxCell id="TdfvYruZWpuvt_22ktZn-107" style="edgeStyle=orthogonalEdgeStyle;rounded=0;orthogonalLoop=1;jettySize=auto;html=1;entryX=0.5;entryY=1;entryDx=0;entryDy=0;" parent="1" target="TdfvYruZWpuvt_22ktZn-63" edge="1">
          <mxGeometry relative="1" as="geometry">
            <mxPoint x="330" y="550" as="sourcePoint" />
            <Array as="points">
              <mxPoint x="330" y="570" />
              <mxPoint x="190" y="570" />
              <mxPoint x="190" y="230" />
              <mxPoint x="330" y="230" />
            </Array>
            <mxPoint x="230" y="80" as="targetPoint" />
          </mxGeometry>
        </mxCell>
        <mxCell id="TdfvYruZWpuvt_22ktZn-108" style="edgeStyle=orthogonalEdgeStyle;rounded=0;orthogonalLoop=1;jettySize=auto;html=1;exitX=0.5;exitY=0;exitDx=0;exitDy=0;entryX=0.5;entryY=1;entryDx=0;entryDy=0;" parent="1" source="TdfvYruZWpuvt_22ktZn-93" target="TdfvYruZWpuvt_22ktZn-67" edge="1">
          <mxGeometry relative="1" as="geometry">
            <Array as="points">
              <mxPoint x="270" y="480" />
              <mxPoint x="270" y="480" />
            </Array>
          </mxGeometry>
        </mxCell>
        <mxCell id="TdfvYruZWpuvt_22ktZn-109" style="edgeStyle=orthogonalEdgeStyle;rounded=0;orthogonalLoop=1;jettySize=auto;html=1;exitX=0.5;exitY=0;exitDx=0;exitDy=0;entryX=0.25;entryY=1;entryDx=0;entryDy=0;" parent="1" source="TdfvYruZWpuvt_22ktZn-98" target="TdfvYruZWpuvt_22ktZn-3" edge="1">
          <mxGeometry relative="1" as="geometry">
            <Array as="points">
              <mxPoint x="570" y="430" />
              <mxPoint x="255" y="430" />
            </Array>
            <mxPoint x="260" y="240" as="targetPoint" />
          </mxGeometry>
        </mxCell>
        <mxCell id="TdfvYruZWpuvt_22ktZn-110" style="edgeStyle=orthogonalEdgeStyle;rounded=0;orthogonalLoop=1;jettySize=auto;html=1;exitX=0.5;exitY=1;exitDx=0;exitDy=0;entryX=0;entryY=0.5;entryDx=0;entryDy=0;" parent="1" source="TdfvYruZWpuvt_22ktZn-96" target="TdfvYruZWpuvt_22ktZn-57" edge="1">
          <mxGeometry relative="1" as="geometry">
            <mxPoint x="290" y="575" as="sourcePoint" />
            <mxPoint x="290" y="215" as="targetPoint" />
            <Array as="points">
              <mxPoint x="450" y="610" />
              <mxPoint x="170" y="610" />
              <mxPoint x="170" y="19" />
            </Array>
          </mxGeometry>
        </mxCell>
        <mxCell id="TdfvYruZWpuvt_22ktZn-111" style="edgeStyle=orthogonalEdgeStyle;rounded=0;orthogonalLoop=1;jettySize=auto;html=1;entryX=0;entryY=0.75;entryDx=0;entryDy=0;" parent="1" target="TdfvYruZWpuvt_22ktZn-57" edge="1">
          <mxGeometry relative="1" as="geometry">
            <mxPoint x="390" y="550" as="sourcePoint" />
            <mxPoint x="190" y="-120" as="targetPoint" />
            <Array as="points">
              <mxPoint x="390" y="590" />
              <mxPoint x="180" y="590" />
              <mxPoint x="180" y="29" />
            </Array>
          </mxGeometry>
        </mxCell>
        <mxCell id="TdfvYruZWpuvt_22ktZn-55" value="" style="childLayout=tableLayout;recursiveResize=0;shadow=0;fillColor=none;" parent="1" vertex="1">
          <mxGeometry x="241" y="-1" width="180" height="40" as="geometry" />
        </mxCell>
        <mxCell id="TdfvYruZWpuvt_22ktZn-56" value="" style="shape=tableRow;horizontal=0;startSize=0;swimlaneHead=0;swimlaneBody=0;top=0;left=0;bottom=0;right=0;dropTarget=0;collapsible=0;recursiveResize=0;expand=0;fontStyle=0;fillColor=none;strokeColor=inherit;" parent="TdfvYruZWpuvt_22ktZn-55" vertex="1">
          <mxGeometry width="180" height="40" as="geometry" />
        </mxCell>
        <mxCell id="TdfvYruZWpuvt_22ktZn-57" value="&lt;u&gt;AP_Name&lt;/u&gt;" style="connectable=1;recursiveResize=0;strokeColor=inherit;fillColor=none;align=center;whiteSpace=wrap;html=1;" parent="TdfvYruZWpuvt_22ktZn-56" vertex="1">
          <mxGeometry width="60" height="40" as="geometry">
            <mxRectangle width="60" height="40" as="alternateBounds" />
          </mxGeometry>
        </mxCell>
        <mxCell id="TdfvYruZWpuvt_22ktZn-58" value="City" style="connectable=1;recursiveResize=0;strokeColor=inherit;fillColor=none;align=center;whiteSpace=wrap;html=1;" parent="TdfvYruZWpuvt_22ktZn-56" vertex="1">
          <mxGeometry x="60" width="60" height="40" as="geometry">
            <mxRectangle width="60" height="40" as="alternateBounds" />
          </mxGeometry>
        </mxCell>
        <mxCell id="TdfvYruZWpuvt_22ktZn-59" value="Country" style="connectable=1;recursiveResize=0;strokeColor=inherit;fillColor=none;align=center;whiteSpace=wrap;html=1;" parent="TdfvYruZWpuvt_22ktZn-56" vertex="1">
          <mxGeometry x="120" width="60" height="40" as="geometry">
            <mxRectangle width="60" height="40" as="alternateBounds" />
          </mxGeometry>
        </mxCell>
        <mxCell id="TdfvYruZWpuvt_22ktZn-121" value="" style="shape=tableRow;horizontal=0;startSize=0;swimlaneHead=0;swimlaneBody=0;top=0;left=0;bottom=0;right=0;dropTarget=0;collapsible=0;recursiveResize=0;expand=0;fontStyle=0;fillColor=none;strokeColor=inherit;" parent="1" vertex="1">
          <mxGeometry x="240" y="80" width="120" height="40" as="geometry" />
        </mxCell>
        <mxCell id="TdfvYruZWpuvt_22ktZn-122" value="&lt;u&gt;AP_Name&lt;/u&gt;" style="connectable=1;recursiveResize=0;strokeColor=inherit;fillColor=none;align=center;whiteSpace=wrap;html=1;" parent="TdfvYruZWpuvt_22ktZn-121" vertex="1">
          <mxGeometry width="60" height="40" as="geometry">
            <mxRectangle width="60" height="40" as="alternateBounds" />
          </mxGeometry>
        </mxCell>
        <mxCell id="TdfvYruZWpuvt_22ktZn-123" value="&lt;u&gt;Airline_ID&lt;/u&gt;" style="connectable=1;recursiveResize=0;strokeColor=inherit;fillColor=none;align=center;whiteSpace=wrap;html=1;" parent="TdfvYruZWpuvt_22ktZn-121" vertex="1">
          <mxGeometry x="60" width="60" height="40" as="geometry">
            <mxRectangle width="60" height="40" as="alternateBounds" />
          </mxGeometry>
        </mxCell>
        <mxCell id="TdfvYruZWpuvt_22ktZn-125" style="edgeStyle=orthogonalEdgeStyle;rounded=0;orthogonalLoop=1;jettySize=auto;html=1;exitX=0.5;exitY=0;exitDx=0;exitDy=0;entryX=0.5;entryY=1;entryDx=0;entryDy=0;" parent="1" source="TdfvYruZWpuvt_22ktZn-122" target="TdfvYruZWpuvt_22ktZn-57" edge="1">
          <mxGeometry relative="1" as="geometry" />
        </mxCell>
        <mxCell id="TdfvYruZWpuvt_22ktZn-126" style="edgeStyle=orthogonalEdgeStyle;rounded=0;orthogonalLoop=1;jettySize=auto;html=1;exitX=0.5;exitY=1;exitDx=0;exitDy=0;entryX=0.5;entryY=0;entryDx=0;entryDy=0;" parent="1" source="TdfvYruZWpuvt_22ktZn-123" target="TdfvYruZWpuvt_22ktZn-63" edge="1">
          <mxGeometry relative="1" as="geometry" />
        </mxCell>
        <mxCell id="KOnyzkUJQbg884Fugweh-2" value="" style="childLayout=tableLayout;recursiveResize=0;shadow=0;fillColor=none;" parent="1" vertex="1">
          <mxGeometry x="400" y="218" width="240" height="40" as="geometry" />
        </mxCell>
        <mxCell id="KOnyzkUJQbg884Fugweh-3" value="" style="shape=tableRow;horizontal=0;startSize=0;swimlaneHead=0;swimlaneBody=0;top=0;left=0;bottom=0;right=0;dropTarget=0;collapsible=0;recursiveResize=0;expand=0;fontStyle=0;fillColor=none;strokeColor=inherit;" parent="KOnyzkUJQbg884Fugweh-2" vertex="1">
          <mxGeometry width="240" height="40" as="geometry" />
        </mxCell>
        <mxCell id="KOnyzkUJQbg884Fugweh-4" value="&lt;i&gt;Name&lt;/i&gt;" style="connectable=1;recursiveResize=0;strokeColor=inherit;fillColor=none;align=center;whiteSpace=wrap;html=1;" parent="KOnyzkUJQbg884Fugweh-3" vertex="1">
          <mxGeometry width="60" height="40" as="geometry">
            <mxRectangle width="60" height="40" as="alternateBounds" />
          </mxGeometry>
        </mxCell>
        <mxCell id="KOnyzkUJQbg884Fugweh-5" value="DOB" style="connectable=1;recursiveResize=0;strokeColor=inherit;fillColor=none;align=center;whiteSpace=wrap;html=1;" parent="KOnyzkUJQbg884Fugweh-3" vertex="1">
          <mxGeometry x="60" width="60" height="40" as="geometry">
            <mxRectangle width="60" height="40" as="alternateBounds" />
          </mxGeometry>
        </mxCell>
        <mxCell id="KOnyzkUJQbg884Fugweh-6" value="&lt;font style=&quot;font-size: 10px;&quot;&gt;Relationship&lt;/font&gt;" style="connectable=1;recursiveResize=0;strokeColor=inherit;fillColor=none;align=center;whiteSpace=wrap;html=1;" parent="KOnyzkUJQbg884Fugweh-3" vertex="1">
          <mxGeometry x="120" width="60" height="40" as="geometry">
            <mxRectangle width="60" height="40" as="alternateBounds" />
          </mxGeometry>
        </mxCell>
        <mxCell id="KOnyzkUJQbg884Fugweh-7" value="Depepends&lt;br&gt;on" style="connectable=1;recursiveResize=0;strokeColor=inherit;fillColor=none;align=center;whiteSpace=wrap;html=1;" parent="KOnyzkUJQbg884Fugweh-3" vertex="1">
          <mxGeometry x="180" width="60" height="40" as="geometry">
            <mxRectangle width="60" height="40" as="alternateBounds" />
          </mxGeometry>
        </mxCell>
        <mxCell id="KOnyzkUJQbg884Fugweh-8" style="edgeStyle=orthogonalEdgeStyle;rounded=0;orthogonalLoop=1;jettySize=auto;html=1;exitX=0.5;exitY=1;exitDx=0;exitDy=0;entryX=0.75;entryY=0;entryDx=0;entryDy=0;" parent="1" source="KOnyzkUJQbg884Fugweh-7" target="TdfvYruZWpuvt_22ktZn-3" edge="1">
          <mxGeometry relative="1" as="geometry">
            <mxPoint x="840" y="270" as="sourcePoint" />
            <mxPoint x="240" y="270" as="targetPoint" />
          </mxGeometry>
        </mxCell>
        <mxCell id="KOnyzkUJQbg884Fugweh-18" value="" style="childLayout=tableLayout;recursiveResize=0;shadow=0;fillColor=none;" parent="1" vertex="1">
          <mxGeometry x="240" y="727" width="420" height="40" as="geometry" />
        </mxCell>
        <mxCell id="KOnyzkUJQbg884Fugweh-19" value="" style="shape=tableRow;horizontal=0;startSize=0;swimlaneHead=0;swimlaneBody=0;top=0;left=0;bottom=0;right=0;dropTarget=0;collapsible=0;recursiveResize=0;expand=0;fontStyle=0;fillColor=none;strokeColor=inherit;" parent="KOnyzkUJQbg884Fugweh-18" vertex="1">
          <mxGeometry width="420" height="40" as="geometry" />
        </mxCell>
        <mxCell id="KOnyzkUJQbg884Fugweh-20" value="&lt;u&gt;PID&lt;/u&gt;" style="connectable=1;recursiveResize=0;strokeColor=inherit;fillColor=none;align=center;whiteSpace=wrap;html=1;" parent="KOnyzkUJQbg884Fugweh-19" vertex="1">
          <mxGeometry width="60" height="40" as="geometry">
            <mxRectangle width="60" height="40" as="alternateBounds" />
          </mxGeometry>
        </mxCell>
        <mxCell id="KOnyzkUJQbg884Fugweh-22" value="Fname" style="connectable=1;recursiveResize=0;strokeColor=inherit;fillColor=none;align=center;whiteSpace=wrap;html=1;" parent="KOnyzkUJQbg884Fugweh-19" vertex="1">
          <mxGeometry x="60" width="60" height="40" as="geometry">
            <mxRectangle width="60" height="40" as="alternateBounds" />
          </mxGeometry>
        </mxCell>
        <mxCell id="KOnyzkUJQbg884Fugweh-23" value="Mname" style="connectable=1;recursiveResize=0;strokeColor=inherit;fillColor=none;align=center;whiteSpace=wrap;html=1;" parent="KOnyzkUJQbg884Fugweh-19" vertex="1">
          <mxGeometry x="120" width="60" height="40" as="geometry">
            <mxRectangle width="60" height="40" as="alternateBounds" />
          </mxGeometry>
        </mxCell>
        <mxCell id="KOnyzkUJQbg884Fugweh-24" value="Lname" style="connectable=1;recursiveResize=0;strokeColor=inherit;fillColor=none;align=center;whiteSpace=wrap;html=1;" parent="KOnyzkUJQbg884Fugweh-19" vertex="1">
          <mxGeometry x="180" width="60" height="40" as="geometry">
            <mxRectangle width="60" height="40" as="alternateBounds" />
          </mxGeometry>
        </mxCell>
        <mxCell id="KOnyzkUJQbg884Fugweh-25" value="Bdate" style="connectable=1;recursiveResize=0;strokeColor=inherit;fillColor=none;align=center;whiteSpace=wrap;html=1;" parent="KOnyzkUJQbg884Fugweh-19" vertex="1">
          <mxGeometry x="240" width="60" height="40" as="geometry">
            <mxRectangle width="60" height="40" as="alternateBounds" />
          </mxGeometry>
        </mxCell>
        <mxCell id="KOnyzkUJQbg884Fugweh-26" value="Age" style="connectable=1;recursiveResize=0;strokeColor=inherit;fillColor=none;align=center;whiteSpace=wrap;html=1;" parent="KOnyzkUJQbg884Fugweh-19" vertex="1">
          <mxGeometry x="300" width="60" height="40" as="geometry">
            <mxRectangle width="60" height="40" as="alternateBounds" />
          </mxGeometry>
        </mxCell>
        <mxCell id="KOnyzkUJQbg884Fugweh-27" value="Boarding&lt;br&gt;Flight" style="connectable=1;recursiveResize=0;strokeColor=inherit;fillColor=none;align=center;whiteSpace=wrap;html=1;" parent="KOnyzkUJQbg884Fugweh-19" vertex="1">
          <mxGeometry x="360" width="60" height="40" as="geometry">
            <mxRectangle width="60" height="40" as="alternateBounds" />
          </mxGeometry>
        </mxCell>
        <mxCell id="KOnyzkUJQbg884Fugweh-29" style="edgeStyle=orthogonalEdgeStyle;rounded=0;orthogonalLoop=1;jettySize=auto;html=1;exitX=0.5;exitY=0;exitDx=0;exitDy=0;entryX=0.5;entryY=1;entryDx=0;entryDy=0;" parent="1" source="KOnyzkUJQbg884Fugweh-27" target="TdfvYruZWpuvt_22ktZn-97" edge="1">
          <mxGeometry relative="1" as="geometry" />
        </mxCell>
        <mxCell id="KOnyzkUJQbg884Fugweh-35" value="" style="childLayout=tableLayout;recursiveResize=0;shadow=0;fillColor=none;" parent="1" vertex="1">
          <mxGeometry x="389" y="648" width="180" height="40" as="geometry" />
        </mxCell>
        <mxCell id="KOnyzkUJQbg884Fugweh-36" value="" style="shape=tableRow;horizontal=0;startSize=0;swimlaneHead=0;swimlaneBody=0;top=0;left=0;bottom=0;right=0;dropTarget=0;collapsible=0;recursiveResize=0;expand=0;fontStyle=0;fillColor=none;strokeColor=inherit;" parent="KOnyzkUJQbg884Fugweh-35" vertex="1">
          <mxGeometry width="180" height="40" as="geometry" />
        </mxCell>
        <mxCell id="KOnyzkUJQbg884Fugweh-37" value="&lt;i&gt;Baggage&lt;br&gt;ID&lt;/i&gt;" style="connectable=1;recursiveResize=0;strokeColor=inherit;fillColor=none;align=center;whiteSpace=wrap;html=1;" parent="KOnyzkUJQbg884Fugweh-36" vertex="1">
          <mxGeometry width="60" height="40" as="geometry">
            <mxRectangle width="60" height="40" as="alternateBounds" />
          </mxGeometry>
        </mxCell>
        <mxCell id="KOnyzkUJQbg884Fugweh-38" value="Weight" style="connectable=1;recursiveResize=0;strokeColor=inherit;fillColor=none;align=center;whiteSpace=wrap;html=1;" parent="KOnyzkUJQbg884Fugweh-36" vertex="1">
          <mxGeometry x="60" width="60" height="40" as="geometry">
            <mxRectangle width="60" height="40" as="alternateBounds" />
          </mxGeometry>
        </mxCell>
        <mxCell id="KOnyzkUJQbg884Fugweh-39" value="Belongs&lt;br&gt;To" style="connectable=1;recursiveResize=0;strokeColor=inherit;fillColor=none;align=center;whiteSpace=wrap;html=1;" parent="KOnyzkUJQbg884Fugweh-36" vertex="1">
          <mxGeometry x="120" width="60" height="40" as="geometry">
            <mxRectangle width="60" height="40" as="alternateBounds" />
          </mxGeometry>
        </mxCell>
        <mxCell id="fVC97Bl0zkbnZXoqsmfV-3" value="Airport" style="text;html=1;align=center;verticalAlign=middle;whiteSpace=wrap;rounded=0;" parent="1" vertex="1">
          <mxGeometry x="208" y="-23" width="60" height="30" as="geometry" />
        </mxCell>
        <mxCell id="fVC97Bl0zkbnZXoqsmfV-4" value="Airline" style="text;html=1;align=center;verticalAlign=middle;whiteSpace=wrap;rounded=0;" parent="1" vertex="1">
          <mxGeometry x="200" y="137" width="60" height="30" as="geometry" />
        </mxCell>
        <mxCell id="fVC97Bl0zkbnZXoqsmfV-6" value="Employee" style="text;html=1;align=center;verticalAlign=middle;whiteSpace=wrap;rounded=0;" parent="1" vertex="1">
          <mxGeometry x="201" y="275" width="60" height="30" as="geometry" />
        </mxCell>
        <mxCell id="fVC97Bl0zkbnZXoqsmfV-7" value="Airplane" style="text;html=1;align=center;verticalAlign=middle;whiteSpace=wrap;rounded=0;" parent="1" vertex="1">
          <mxGeometry x="200" y="412" width="60" height="30" as="geometry" />
        </mxCell>
        <mxCell id="fVC97Bl0zkbnZXoqsmfV-8" value="Flights" style="text;html=1;align=center;verticalAlign=middle;whiteSpace=wrap;rounded=0;" parent="1" vertex="1">
          <mxGeometry x="200" y="486" width="60" height="30" as="geometry" />
        </mxCell>
        <mxCell id="fVC97Bl0zkbnZXoqsmfV-9" value="Passenger" style="text;html=1;align=center;verticalAlign=middle;whiteSpace=wrap;rounded=0;" parent="1" vertex="1">
          <mxGeometry x="193" y="705" width="60" height="30" as="geometry" />
        </mxCell>
        <mxCell id="fVC97Bl0zkbnZXoqsmfV-10" value="Dependant" style="text;html=1;align=center;verticalAlign=middle;whiteSpace=wrap;rounded=0;" parent="1" vertex="1">
          <mxGeometry x="372" y="195" width="60" height="30" as="geometry" />
        </mxCell>
        <mxCell id="fVC97Bl0zkbnZXoqsmfV-11" value="Operates" style="text;html=1;align=center;verticalAlign=middle;whiteSpace=wrap;rounded=0;" parent="1" vertex="1">
          <mxGeometry x="202" y="59" width="60" height="30" as="geometry" />
        </mxCell>
        <mxCell id="fVC97Bl0zkbnZXoqsmfV-12" value="Luggage" style="text;html=1;align=center;verticalAlign=middle;whiteSpace=wrap;rounded=0;" parent="1" vertex="1">
          <mxGeometry x="363" y="625" width="60" height="30" as="geometry" />
        </mxCell>
        <mxCell id="fVC97Bl0zkbnZXoqsmfV-13" value="" style="childLayout=tableLayout;recursiveResize=0;shadow=0;fillColor=none;" parent="1" vertex="1">
          <mxGeometry x="239" y="646" width="120" height="40" as="geometry" />
        </mxCell>
        <mxCell id="fVC97Bl0zkbnZXoqsmfV-14" value="" style="shape=tableRow;horizontal=0;startSize=0;swimlaneHead=0;swimlaneBody=0;top=0;left=0;bottom=0;right=0;dropTarget=0;collapsible=0;recursiveResize=0;expand=0;fontStyle=0;fillColor=none;strokeColor=inherit;" parent="fVC97Bl0zkbnZXoqsmfV-13" vertex="1">
          <mxGeometry width="120" height="40" as="geometry" />
        </mxCell>
        <mxCell id="fVC97Bl0zkbnZXoqsmfV-15" value="PID" style="connectable=1;recursiveResize=0;strokeColor=inherit;fillColor=none;align=center;whiteSpace=wrap;html=1;" parent="fVC97Bl0zkbnZXoqsmfV-14" vertex="1">
          <mxGeometry width="60" height="40" as="geometry">
            <mxRectangle width="60" height="40" as="alternateBounds" />
          </mxGeometry>
        </mxCell>
        <mxCell id="fVC97Bl0zkbnZXoqsmfV-16" value="Phone_No" style="connectable=1;recursiveResize=0;strokeColor=inherit;fillColor=none;align=center;whiteSpace=wrap;html=1;" parent="fVC97Bl0zkbnZXoqsmfV-14" vertex="1">
          <mxGeometry x="60" width="60" height="40" as="geometry">
            <mxRectangle width="60" height="40" as="alternateBounds" />
          </mxGeometry>
        </mxCell>
        <mxCell id="fVC97Bl0zkbnZXoqsmfV-18" value="Passenger_Phone" style="text;html=1;align=center;verticalAlign=middle;whiteSpace=wrap;rounded=0;" parent="1" vertex="1">
          <mxGeometry x="183" y="624" width="60" height="30" as="geometry" />
        </mxCell>
        <mxCell id="fVC97Bl0zkbnZXoqsmfV-20" value="" style="childLayout=tableLayout;recursiveResize=0;shadow=0;fillColor=none;" parent="1" vertex="1">
          <mxGeometry x="419" y="381" width="120" height="40" as="geometry" />
        </mxCell>
        <mxCell id="fVC97Bl0zkbnZXoqsmfV-21" value="" style="shape=tableRow;horizontal=0;startSize=0;swimlaneHead=0;swimlaneBody=0;top=0;left=0;bottom=0;right=0;dropTarget=0;collapsible=0;recursiveResize=0;expand=0;fontStyle=0;fillColor=none;strokeColor=inherit;" parent="fVC97Bl0zkbnZXoqsmfV-20" vertex="1">
          <mxGeometry width="120" height="40" as="geometry" />
        </mxCell>
        <mxCell id="fVC97Bl0zkbnZXoqsmfV-22" value="PID" style="connectable=1;recursiveResize=0;strokeColor=inherit;fillColor=none;align=center;whiteSpace=wrap;html=1;" parent="fVC97Bl0zkbnZXoqsmfV-21" vertex="1">
          <mxGeometry width="60" height="40" as="geometry">
            <mxRectangle width="60" height="40" as="alternateBounds" />
          </mxGeometry>
        </mxCell>
        <mxCell id="fVC97Bl0zkbnZXoqsmfV-23" value="Phone_No" style="connectable=1;recursiveResize=0;strokeColor=inherit;fillColor=none;align=center;whiteSpace=wrap;html=1;" parent="fVC97Bl0zkbnZXoqsmfV-21" vertex="1">
          <mxGeometry x="60" width="60" height="40" as="geometry">
            <mxRectangle width="60" height="40" as="alternateBounds" />
          </mxGeometry>
        </mxCell>
        <mxCell id="fVC97Bl0zkbnZXoqsmfV-24" value="Employee_Phone" style="text;html=1;align=center;verticalAlign=middle;whiteSpace=wrap;rounded=0;" parent="1" vertex="1">
          <mxGeometry x="363" y="361" width="60" height="30" as="geometry" />
        </mxCell>
        <mxCell id="fVC97Bl0zkbnZXoqsmfV-25" style="edgeStyle=orthogonalEdgeStyle;rounded=0;orthogonalLoop=1;jettySize=auto;html=1;exitX=0;exitY=0.5;exitDx=0;exitDy=0;entryX=0.5;entryY=1;entryDx=0;entryDy=0;" parent="1" source="fVC97Bl0zkbnZXoqsmfV-22" target="TdfvYruZWpuvt_22ktZn-3" edge="1">
          <mxGeometry relative="1" as="geometry" />
        </mxCell>
        <mxCell id="fVC97Bl0zkbnZXoqsmfV-27" style="edgeStyle=orthogonalEdgeStyle;rounded=0;orthogonalLoop=1;jettySize=auto;html=1;exitX=0.25;exitY=0;exitDx=0;exitDy=0;entryX=0.25;entryY=1;entryDx=0;entryDy=0;" parent="1" source="KOnyzkUJQbg884Fugweh-20" target="fVC97Bl0zkbnZXoqsmfV-15" edge="1">
          <mxGeometry relative="1" as="geometry" />
        </mxCell>
        <mxCell id="fVC97Bl0zkbnZXoqsmfV-28" style="edgeStyle=orthogonalEdgeStyle;rounded=0;orthogonalLoop=1;jettySize=auto;html=1;exitX=0.75;exitY=0;exitDx=0;exitDy=0;entryX=0.5;entryY=1;entryDx=0;entryDy=0;" parent="1" source="KOnyzkUJQbg884Fugweh-20" target="KOnyzkUJQbg884Fugweh-37" edge="1">
          <mxGeometry relative="1" as="geometry" />
        </mxCell>
        <mxCell id="fVC97Bl0zkbnZXoqsmfV-30" value="" style="childLayout=tableLayout;recursiveResize=0;shadow=0;fillColor=none;" parent="1" vertex="1">
          <mxGeometry x="240" y="807" width="180" height="40" as="geometry" />
        </mxCell>
        <mxCell id="fVC97Bl0zkbnZXoqsmfV-31" value="" style="shape=tableRow;horizontal=0;startSize=0;swimlaneHead=0;swimlaneBody=0;top=0;left=0;bottom=0;right=0;dropTarget=0;collapsible=0;recursiveResize=0;expand=0;fontStyle=0;fillColor=none;strokeColor=inherit;" parent="fVC97Bl0zkbnZXoqsmfV-30" vertex="1">
          <mxGeometry width="180" height="40" as="geometry" />
        </mxCell>
        <mxCell id="fVC97Bl0zkbnZXoqsmfV-39" value="&lt;u&gt;PID&lt;/u&gt;" style="connectable=1;recursiveResize=0;strokeColor=inherit;fillColor=none;align=center;whiteSpace=wrap;html=1;" parent="fVC97Bl0zkbnZXoqsmfV-31" vertex="1">
          <mxGeometry width="60" height="40" as="geometry">
            <mxRectangle width="60" height="40" as="alternateBounds" />
          </mxGeometry>
        </mxCell>
        <mxCell id="fVC97Bl0zkbnZXoqsmfV-32" value="FirstClass&lt;br&gt;Services" style="connectable=1;recursiveResize=0;strokeColor=inherit;fillColor=none;align=center;whiteSpace=wrap;html=1;" parent="fVC97Bl0zkbnZXoqsmfV-31" vertex="1">
          <mxGeometry x="60" width="60" height="40" as="geometry">
            <mxRectangle width="60" height="40" as="alternateBounds" />
          </mxGeometry>
        </mxCell>
        <mxCell id="fVC97Bl0zkbnZXoqsmfV-33" value="Private&lt;br&gt;Suite" style="connectable=1;recursiveResize=0;strokeColor=inherit;fillColor=none;align=center;whiteSpace=wrap;html=1;" parent="fVC97Bl0zkbnZXoqsmfV-31" vertex="1">
          <mxGeometry x="120" width="60" height="40" as="geometry">
            <mxRectangle width="60" height="40" as="alternateBounds" />
          </mxGeometry>
        </mxCell>
        <mxCell id="fVC97Bl0zkbnZXoqsmfV-40" style="edgeStyle=orthogonalEdgeStyle;rounded=0;orthogonalLoop=1;jettySize=auto;html=1;exitX=0.5;exitY=0;exitDx=0;exitDy=0;entryX=0.5;entryY=1;entryDx=0;entryDy=0;" parent="1" source="fVC97Bl0zkbnZXoqsmfV-39" target="KOnyzkUJQbg884Fugweh-20" edge="1">
          <mxGeometry relative="1" as="geometry" />
        </mxCell>
        <mxCell id="fVC97Bl0zkbnZXoqsmfV-41" value="FirstClassPassenger" style="text;html=1;align=center;verticalAlign=middle;whiteSpace=wrap;rounded=0;" parent="1" vertex="1">
          <mxGeometry x="183" y="785" width="60" height="30" as="geometry" />
        </mxCell>
        <mxCell id="fVC97Bl0zkbnZXoqsmfV-42" value="" style="childLayout=tableLayout;recursiveResize=0;shadow=0;fillColor=none;" parent="1" vertex="1">
          <mxGeometry x="558" y="809" width="240" height="40" as="geometry" />
        </mxCell>
        <mxCell id="fVC97Bl0zkbnZXoqsmfV-43" value="" style="shape=tableRow;horizontal=0;startSize=0;swimlaneHead=0;swimlaneBody=0;top=0;left=0;bottom=0;right=0;dropTarget=0;collapsible=0;recursiveResize=0;expand=0;fontStyle=0;fillColor=none;strokeColor=inherit;" parent="fVC97Bl0zkbnZXoqsmfV-42" vertex="1">
          <mxGeometry width="240" height="40" as="geometry" />
        </mxCell>
        <mxCell id="fVC97Bl0zkbnZXoqsmfV-44" value="&lt;u&gt;PID&lt;/u&gt;" style="connectable=1;recursiveResize=0;strokeColor=inherit;fillColor=none;align=center;whiteSpace=wrap;html=1;" parent="fVC97Bl0zkbnZXoqsmfV-43" vertex="1">
          <mxGeometry width="60" height="40" as="geometry">
            <mxRectangle width="60" height="40" as="alternateBounds" />
          </mxGeometry>
        </mxCell>
        <mxCell id="fVC97Bl0zkbnZXoqsmfV-46" value="&lt;font style=&quot;font-size: 8px;&quot;&gt;BuisnessLounge&lt;br&gt;Accsess&lt;/font&gt;" style="connectable=1;recursiveResize=0;strokeColor=inherit;fillColor=none;align=center;whiteSpace=wrap;html=1;" parent="fVC97Bl0zkbnZXoqsmfV-43" vertex="1">
          <mxGeometry x="60" width="60" height="40" as="geometry">
            <mxRectangle width="60" height="40" as="alternateBounds" />
          </mxGeometry>
        </mxCell>
        <mxCell id="fVC97Bl0zkbnZXoqsmfV-47" value="Priority&lt;br&gt;Boarding" style="connectable=1;recursiveResize=0;strokeColor=inherit;fillColor=none;align=center;whiteSpace=wrap;html=1;" parent="fVC97Bl0zkbnZXoqsmfV-43" vertex="1">
          <mxGeometry x="120" width="60" height="40" as="geometry">
            <mxRectangle width="60" height="40" as="alternateBounds" />
          </mxGeometry>
        </mxCell>
        <mxCell id="fVC97Bl0zkbnZXoqsmfV-50" value="&lt;font style=&quot;font-size: 10px;&quot;&gt;Workstation&lt;br&gt;Avalibility&lt;/font&gt;" style="connectable=1;recursiveResize=0;strokeColor=inherit;fillColor=none;align=center;whiteSpace=wrap;html=1;" parent="fVC97Bl0zkbnZXoqsmfV-43" vertex="1">
          <mxGeometry x="180" width="60" height="40" as="geometry">
            <mxRectangle width="60" height="40" as="alternateBounds" />
          </mxGeometry>
        </mxCell>
        <mxCell id="fVC97Bl0zkbnZXoqsmfV-48" value="BuisnessClassPassenger" style="text;html=1;align=center;verticalAlign=middle;whiteSpace=wrap;rounded=0;" parent="1" vertex="1">
          <mxGeometry x="551" y="785" width="60" height="30" as="geometry" />
        </mxCell>
        <mxCell id="fVC97Bl0zkbnZXoqsmfV-49" style="edgeStyle=orthogonalEdgeStyle;rounded=0;orthogonalLoop=1;jettySize=auto;html=1;exitX=0;exitY=0.5;exitDx=0;exitDy=0;entryX=0.75;entryY=1;entryDx=0;entryDy=0;" parent="1" source="fVC97Bl0zkbnZXoqsmfV-44" target="KOnyzkUJQbg884Fugweh-20" edge="1">
          <mxGeometry relative="1" as="geometry">
            <Array as="points">
              <mxPoint x="500" y="829" />
              <mxPoint x="500" y="790" />
              <mxPoint x="285" y="790" />
            </Array>
          </mxGeometry>
        </mxCell>
        <mxCell id="0zKmsY7gPE1Do-SOgpb3-1" value="" style="childLayout=tableLayout;recursiveResize=0;shadow=0;fillColor=none;" vertex="1" parent="1">
          <mxGeometry x="240" y="877" width="120" height="40" as="geometry" />
        </mxCell>
        <mxCell id="0zKmsY7gPE1Do-SOgpb3-2" value="" style="shape=tableRow;horizontal=0;startSize=0;swimlaneHead=0;swimlaneBody=0;top=0;left=0;bottom=0;right=0;dropTarget=0;collapsible=0;recursiveResize=0;expand=0;fontStyle=0;fillColor=none;strokeColor=inherit;" vertex="1" parent="0zKmsY7gPE1Do-SOgpb3-1">
          <mxGeometry width="120" height="40" as="geometry" />
        </mxCell>
        <mxCell id="0zKmsY7gPE1Do-SOgpb3-3" value="PID" style="connectable=1;recursiveResize=0;strokeColor=inherit;fillColor=none;align=center;whiteSpace=wrap;html=1;" vertex="1" parent="0zKmsY7gPE1Do-SOgpb3-2">
          <mxGeometry width="60" height="40" as="geometry">
            <mxRectangle width="60" height="40" as="alternateBounds" />
          </mxGeometry>
        </mxCell>
        <mxCell id="0zKmsY7gPE1Do-SOgpb3-4" value="FirstClass&lt;br&gt;Services" style="connectable=1;recursiveResize=0;strokeColor=inherit;fillColor=none;align=center;whiteSpace=wrap;html=1;" vertex="1" parent="0zKmsY7gPE1Do-SOgpb3-2">
          <mxGeometry x="60" width="60" height="40" as="geometry">
            <mxRectangle width="60" height="40" as="alternateBounds" />
          </mxGeometry>
        </mxCell>
        <mxCell id="0zKmsY7gPE1Do-SOgpb3-7" style="edgeStyle=orthogonalEdgeStyle;rounded=0;orthogonalLoop=1;jettySize=auto;html=1;exitX=0.5;exitY=0;exitDx=0;exitDy=0;entryX=0.5;entryY=1;entryDx=0;entryDy=0;" edge="1" parent="1" source="0zKmsY7gPE1Do-SOgpb3-3" target="fVC97Bl0zkbnZXoqsmfV-39">
          <mxGeometry relative="1" as="geometry" />
        </mxCell>
        <mxCell id="0zKmsY7gPE1Do-SOgpb3-8" value="" style="childLayout=tableLayout;recursiveResize=0;shadow=0;fillColor=none;" vertex="1" parent="1">
          <mxGeometry x="560" y="877" width="120" height="40" as="geometry" />
        </mxCell>
        <mxCell id="0zKmsY7gPE1Do-SOgpb3-9" value="" style="shape=tableRow;horizontal=0;startSize=0;swimlaneHead=0;swimlaneBody=0;top=0;left=0;bottom=0;right=0;dropTarget=0;collapsible=0;recursiveResize=0;expand=0;fontStyle=0;fillColor=none;strokeColor=inherit;" vertex="1" parent="0zKmsY7gPE1Do-SOgpb3-8">
          <mxGeometry width="120" height="40" as="geometry" />
        </mxCell>
        <mxCell id="0zKmsY7gPE1Do-SOgpb3-10" value="PID" style="connectable=1;recursiveResize=0;strokeColor=inherit;fillColor=none;align=center;whiteSpace=wrap;html=1;" vertex="1" parent="0zKmsY7gPE1Do-SOgpb3-9">
          <mxGeometry width="60" height="40" as="geometry">
            <mxRectangle width="60" height="40" as="alternateBounds" />
          </mxGeometry>
        </mxCell>
        <mxCell id="0zKmsY7gPE1Do-SOgpb3-11" value="&lt;font style=&quot;font-size: 9px;&quot;&gt;BuisnessClass&lt;br&gt;Services&lt;/font&gt;" style="connectable=1;recursiveResize=0;strokeColor=inherit;fillColor=none;align=center;whiteSpace=wrap;html=1;" vertex="1" parent="0zKmsY7gPE1Do-SOgpb3-9">
          <mxGeometry x="60" width="60" height="40" as="geometry">
            <mxRectangle width="60" height="40" as="alternateBounds" />
          </mxGeometry>
        </mxCell>
        <mxCell id="0zKmsY7gPE1Do-SOgpb3-12" style="edgeStyle=orthogonalEdgeStyle;rounded=0;orthogonalLoop=1;jettySize=auto;html=1;exitX=0.5;exitY=0;exitDx=0;exitDy=0;entryX=0.5;entryY=1;entryDx=0;entryDy=0;" edge="1" parent="1" source="0zKmsY7gPE1Do-SOgpb3-10" target="fVC97Bl0zkbnZXoqsmfV-44">
          <mxGeometry relative="1" as="geometry" />
        </mxCell>
      </root>
    </mxGraphModel>
  </diagram>
</mxfile>
